# AST/ASF file generated using VICON BodyLanguage
# -----------------------------------------------
:version 1.10
:name VICON
:units
  mass 1.0
  length 0.45
  angle deg
:documentation
   .ast/.asf automatically generated from VICON data using
   VICON BodyBuilder and BodyLanguage model FoxedUp or BRILLIANT.MOD
:root
   order TX TY TZ RX RY RZ
   axis XYZ
   position 0 0 0  
   orientation 0 0 0 
:bonedata
  begin
     id 1 
     name lhipjoint
     direction 0.643824 -0.71708 0.266994 
     length 2.52133 
     axis 0 0 0  XYZ
  end
  begin
     id 2 
     name lfemur
     direction 0.34202 -0.939693 0  
     length 7.51824  
     axis 0 0 20  XYZ
    dof rx ry rz
    limits (-160.0 20.0)
           (-70.0 70.0)
           (-60.0 70.0)
  end
  begin
     id 3 
     name ltibia
     direction 0.34202 -0.939693 0   
     length 7.3685   
     axis 0 0 20   XYZ
    dof rx
    limits (-10.0 170.0)
  end
  begin
     id 4 
     name lfoot
     direction 0.105419 -0.289636 0.951314   
     length 2.20972   
     axis -90 7.62852e-016 20   XYZ
    dof rx rz
    limits (-45.0 90.0)
           (-70.0 20.0)
  end
  begin
     id 5 
     name ltoes
     direction 1.53549e-011 -4.21833e-011 1   
     length 1.10139   
     axis -90 7.62852e-016 20   XYZ
    dof rx
    limits (-90.0 20.0)
  end
  begin
     id 6 
     name rhipjoint
     direction -0.608823 -0.743445 0.276811   
     length 2.43192  
     axis 0 0 0  XYZ 
  end
  begin
     id 7 
     name rfemur
     direction -0.34202 -0.939693 0   
     length 7.69715   
     axis 0 0 -20   XYZ
    dof rx ry rz
    limits (-160.0 20.0)
           (-70.0 70.0)
           (-70.0 60.0)
  end
  begin
     id 8 
     name rtibia
     direction -0.34202 -0.939693 0   
     length 7.44924   
     axis 0 0 -20   XYZ
    dof rx
    limits (-10.0 170.0)
 end
 begin
     id 9 
     name rfoot
     direction -0.103614 -0.284677 0.953007   
     length 2.22623  
     axis -90 -7.62852e-016 -20   XYZ
    dof rx rz
    limits (-45.0 90.0)
           (-20.0 70.0)
  end
  begin
     id 10 
     name rtoes
     direction -1.53537e-011 -4.22026e-011 1   
     length 1.11   
     axis -90 -7.62852e-016 -20   XYZ
    dof rx
    limits (-90.0 20.0)
  end
  begin
     id 11 
     name lowerback
     direction -0.0101212 0.99662 -0.0815298   
     length 2.08277   
     axis 0 0 0   XYZ
    dof rx ry rz
    limits (-20.0 45.0)
           (-30.0 30.0)
           (-30.0 30.0)
  end
  begin
     id 12 
     name upperback
     direction 0.024314 0.999591 -0.0150645   
     length 2.08524   
     axis 0 0 0   XYZ
    dof rx ry rz
    limits (-20.0 45.0)
           (-30.0 30.0)
           (-30.0 30.0)
  end
  begin
     id 13 
     name thorax
     direction 0.0285959 0.999323 0.0231357   
     length 2.09645   
     axis 0 0 0   XYZ
    dof rx ry rz
    limits (-20.0 45.0)
           (-30.0 30.0)
           (-30.0 30.0)
  end
  begin
     id 14 
     name lowerneck
     direction -0.065512 0.979301 0.191515   
     length 1.63798   
     axis 0 0 0   XYZ
    dof rx ry rz
    limits (-20.0 45.0)
           (-30.0 30.0)
           (-30.0 30.0)
  end
  begin
     id 15 
     name upperneck
     direction 0.0498479 0.98191 -0.182667   
     length 1.68731   
     axis 0 0 0   XYZ
    dof rx ry rz
    limits (-20.0 45.0)
           (-30.0 30.0)
           (-30.0 30.0)
  end
  begin
     id 16
     name head
     direction 0.0230358 0.996257 -0.0833175  
     length 1.69785  
     axis 0 0 0   XYZ
    dof rx ry rz
    limits (-20.0 45.0)
           (-30.0 30.0)
           (-30.0 30.0)
  end
  begin
     id 17 
     name lclavicle
     direction 0.967963 0.201165 -0.150269  
     length 3.63976  
     axis 0 0 0   XYZ
    dof ry rz
    limits (-20.0 10.0)
           (0.0 20.0)
  end
  begin
     id 18 
     name lhumerus
     direction 1 -4.48954e-011 -2.92837e-028   
     length 5.32462   
     axis 180 -30 -90   XYZ
    dof rx ry rz
    limits (-60.0 90.0)
           (-90.0 90.0)
           (-90.0 90.0)
  end
  begin
     id 19
     name lradius
     direction 1 -4.48958e-011 -6.39511e-027   
     length 3.48402   
     axis 180 -30 -90   XYZ
    dof rx
    limits (-10.0 170.0)
  end
  begin
     id 20
     name lwrist
     direction 1 -4.48975e-011 -1.1413e-026   
     length 1.74201   
     axis 6.88575e-015 90 90   XYZ
    dof ry
    limits (-180.0 0.0)
 end
  begin
     id 21 
     name lhand
     direction 1 -4.48899e-011 -2.28192e-026   
     length 0.572476   
     axis 1.45643e-014 90 90   XYZ
    dof rx rz
    limits (-90.0 90.0)
           (-45.0 45.0)
  end
  begin
     id 22 
     name lfingers
     direction 1 -4.49155e-011 -4.5684e-026   
     length 0.461545   
     axis 2.91283e-014 90 90   XYZ
    dof rx
    limits (0.0 90.0)
  end
  begin
     id 23
     name lthumb
     direction 0.707107 -6.34943e-011 0.707107   
     length 0.662688   
     axis -90 45 -2.25915e-014   XYZ
    dof rx rz
    limits (-45.0 45.0)
           (-45.0 45.0)
  end
  begin
     id 24 
     name rclavicle
     direction -0.964103 0.264019 -0.0282629   
     length 3.54491  
     axis 0 0 0   XYZ 
    dof ry rz
    limits (-10.0 20.0)
           (-20.0 0.0)
  end
  begin
     id 25 
     name rhumerus
     direction -1 -4.48964e-011 -2.45032e-027  
     length 5.33589   
     axis 180 30 90   XYZ
    dof rx ry rz
    limits (-90.0 60.0)
           (-90.0 90.0)
           (-90.0 90.0)
  end
  begin
     id 26 
     name rradius
     direction -1 -4.48987e-011 -1.55093e-027   
     length 3.64134   
     axis 180 30 90   XYZ
    dof rx
    limits (-10.0 170.0)
  end
  begin
     id 27 
     name rwrist
     direction -1 -4.4897e-011 -1.14128e-026   
     length 1.82067   
     axis 6.88575e-015 -90 -90   XYZ
    dof ry
    limits (-180.0 0.0)
  end
  begin
     id 28
     name rhand
     direction -1 -4.49021e-011 -2.28301e-026   
     length 0.734811   
     axis 1.45643e-014 -90 -90   XYZ
    dof rx rz
    limits (-90.0 90.0)
           (-45.0 45.0)
  end
  begin
     id 29
     name rfingers
     direction -1 -4.48862e-011 -4.56319e-026   
     length 0.592424   
     axis 2.91283e-014 -90 -90   XYZ
    dof rx
    limits (0.0 90.0)
  end
  begin
     id 30
     name rthumb
     direction -0.707107 -6.34978e-011 0.707107   
     length 0.850605   
     axis -90 -45 2.25915e-014   XYZ
    dof rx rz
    limits (-45.0 45.0)
           (-45.0 45.0)
  end
:hierarchy
  begin
    root lhipjoint rhipjoint lowerback
    lhipjoint lfemur
    lfemur ltibia
    ltibia lfoot
    lfoot ltoes
    rhipjoint rfemur
    rfemur rtibia
    rtibia rfoot
    rfoot rtoes
    lowerback upperback
    upperback thorax
    thorax lowerneck lclavicle rclavicle
    lowerneck upperneck
    upperneck head
    lclavicle lhumerus
    lhumerus lradius
    lradius lwrist
    lwrist lhand lthumb
    lhand lfingers
    rclavicle rhumerus
    rhumerus rradius
    rradius rwrist
    rwrist rhand rthumb
    rhand rfingers
  end

#!OML:ASF F:\VICON\USERDATA\INSTALL\rory3\rory3.ASF
:FULLY-SPECIFIED
:DEGREES
157
root -1.89596 17.6465 1.78054 -2.09782 6.4624 -3.85332
lowerback 8.16483 0.713546 -2.098
upperback 0.16206 0.684528 -1.52316
thorax -4.41945 0.367997 -0.481856
lowerneck -22.0968 0.238645 -10.5908
upperneck 26.7637 5.41704 -3.45588
head 12.5124 0.818728 1.35184
rclavicle 2.6339e-015 -7.95139e-015
rhumerus 86.7549 -42.6996 -73.3071
rradius 85.4278
rwrist 10.7694
rhand -57.8379 -0.670594
rfingers 7.12502
rthumb -30.0912 -28.2413
lclavicle 2.6339e-015 -7.95139e-015
lhumerus 83.4777 54.0048 58.7646
lradius 82.4362
lwrist 8.4991
lhand -36.3863 32.9228
lfingers 7.12502
lthumb -9.48253 62.6894
rfemur -9.09261 -5.81685 19.2438
rtibia 31.0017
rfoot -18.0714 -8.97324
rtoes 1.42859
lfemur -7.52033 -11.5093 -7.17137
ltibia 40.4157
lfoot -12.1682 -10.3729
ltoes -23.9
158
root -1.95752 17.6599 1.78099 -2.0635 7.18442 -3.97684
lowerback 8.25265 0.718191 -1.99292
upperback 0.389727 0.703445 -1.52829
thorax -4.23042 0.373543 -0.547056
lowerneck -21.7058 0.317337 -10.4976
upperneck 26.9426 5.58739 -3.85672
head 12.5244 0.846223 1.20977
rclavicle 4.6118e-014 3.18055e-015
rhumerus 86.4437 -42.1022 -73.0314
rradius 85.0118
rwrist 11.1757
rhand -57.7622 -0.963455
rfingers 7.12502
rthumb -30.019 -28.5473
lclavicle 4.6118e-014 3.18055e-015
lhumerus 82.61 53.8086 58.0438
lradius 82.1325
lwrist 8.34158
lhand -36.4192 33.2112
lfingers 7.12502
lthumb -9.51427 62.9764
rfemur -8.86867 -6.26186 19.5797
rtibia 30.5882
rfoot -18.13 -9.24748
rtoes 1.67484
lfemur -8.95936 -11.5003 -6.56649
ltibia 42.0269
lfoot -10.5712 -11.6303
ltoes -22.1425
159
root -2.01767 17.6755 1.77919 -2.00753 7.92504 -4.22645
lowerback 8.34443 0.73329 -1.73842
upperback 0.628912 0.751957 -1.49624
thorax -4.03034 0.391778 -0.661022
lowerneck -21.4807 0.360205 -10.4074
upperneck 27.2719 5.7262 -4.17831
head 12.6288 0.857659 1.09539
rclavicle -2.66371e-014 7.95139e-015
rhumerus 86.1909 -41.4713 -72.8921
rradius 84.7177
rwrist 11.7334
rhand -57.6236 -1.50063
rfingers 7.12502
rthumb -29.8867 -29.1084
lclavicle -2.66371e-014 7.95139e-015
lhumerus 81.8829 53.4727 57.681
lradius 81.9398
lwrist 8.04311
lhand -36.4482 33.9708
lfingers 7.12502
lthumb -9.54227 63.7347
rfemur -8.72261 -6.72935 20.0599
rtibia 30.1939
rfoot -18.1314 -9.59099
rtoes 1.3754
lfemur -10.5243 -11.3735 -5.81146
ltibia 43.6134
lfoot -8.81014 -12.8836
ltoes -20.3009
160
root -2.07776 17.6833 1.77592 -2.04365 8.63751 -4.54608
lowerback 8.57843 0.78313 -1.39957
upperback 0.842423 0.851192 -1.44057
thorax -3.93527 0.435145 -0.80652
lowerneck -21.3885 0.469419 -10.2251
upperneck 27.8803 5.98039 -4.492
head 12.8741 0.90965 0.990125
rclavicle 2.28602e-015 6.36111e-015
rhumerus 85.6592 -40.8645 -72.3563
rradius 84.3066
rwrist 11.8922
rhand -57.4573 -1.47441
rfingers 7.12502
rthumb -29.7281 -29.1106
lclavicle 2.28602e-015 6.36111e-015
lhumerus 81.1635 52.8679 57.6025
lradius 81.8869
lwrist 7.5124
lhand -35.9355 33.4481
lfingers 7.12502
lthumb -9.04759 63.2341
rfemur -8.53677 -7.19204 20.615
rtibia 29.837
rfoot -18.1257 -9.97789
rtoes 0.917203
lfemur -12.0162 -11.0585 -4.99852
ltibia 45.1285
lfoot -7.10771 -14.0763
ltoes -21.9126
161
root -2.13456 17.6883 1.77352 -2.11532 9.34057 -4.86641
lowerback 8.75252 0.842202 -1.01124
upperback 1.10163 0.970015 -1.39762
thorax -3.75706 0.48828 -0.994059
lowerneck -21.4199 0.615038 -9.9833
upperneck 28.677 6.30322 -4.7767
head 13.2266 0.986343 0.8986
rclavicle -2.45499e-014 -6.36111e-015
rhumerus 85.0138 -40.3774 -71.4862
rradius 83.7141
rwrist 11.4767
rhand -57.2773 0.0475057
rfingers 7.12502
rthumb -29.5562 -27.6192
lclavicle -2.45499e-014 -6.36111e-015
lhumerus 80.4108 52.2424 57.3567
lradius 81.7284
lwrist 7.13836
lhand -34.9797 31.439
lfingers 7.12502
lthumb -8.12517 61.2628
rfemur -8.33527 -7.66405 21.1524
rtibia 29.5457
rfoot -18.2011 -10.2509
rtoes 1.01865
lfemur -13.4098 -10.8316 -4.24479
ltibia 46.5551
lfoot -6.63697 -14.8633
ltoes -22.8336
162
root -2.18745 17.6958 1.77099 -2.09201 9.97419 -5.0564
lowerback 8.86164 0.917379 -0.73779
upperback 1.34771 1.10022 -1.35941
thorax -3.55679 0.54992 -1.12233
lowerneck -21.422 0.68564 -9.93789
upperneck 29.4309 6.54629 -4.9401
head 13.5546 1.02641 0.870935
rclavicle 4.67144e-015 3.33958e-014
rhumerus 84.5621 -39.8616 -70.7766
rradius 83.0528
rwrist 11.3937
rhand -57.7772 0.478037
rfingers 7.12502
rthumb -30.0333 -27.1032
lclavicle 4.67144e-015 3.33958e-014
lhumerus 79.621 51.7015 56.9526
lradius 81.4101
lwrist 7.09125
lhand -34.5082 30.2991
lfingers 7.12502
lthumb -7.6701 60.14
rfemur -8.28248 -8.1192 21.5356
rtibia 29.3479
rfoot -18.2797 -10.464
rtoes 1.24088
lfemur -14.7929 -10.6655 -3.70487
ltibia 47.8586
lfoot -5.85781 -14.999
ltoes -23.5024
163
root -2.23768 17.7012 1.76779 -1.9994 10.5217 -5.26377
lowerback 8.99645 1.00594 -0.463099
upperback 1.49125 1.24796 -1.27345
thorax -3.47692 0.620869 -1.20585
lowerneck -21.1026 0.728337 -10.0334
upperneck 29.998 6.72681 -5.08202
head 13.7373 1.04699 0.859033
rclavicle -1.78906e-015 1.43125e-014
rhumerus 84.0889 -39.2785 -70.1031
rradius 82.4441
rwrist 11.5826
rhand -57.4966 1.08501
rfingers 7.12502
rthumb -29.7655 -26.5445
lclavicle -1.78906e-015 1.43125e-014
lhumerus 78.4071 51.1765 56.1679
lradius 81.0973
lwrist 7.42628
lhand -34.6851 30.5013
lfingers 7.12502
lthumb -7.8408 60.3359
rfemur -8.37625 -8.58404 21.9365
rtibia 29.228
rfoot -18.3046 -10.6455
rtoes 1.29481
lfemur -16.1834 -10.3963 -3.19025
ltibia 49.0362
lfoot -5.4922 -14.8262
ltoes -24.2167
164
root -2.28522 17.7014 1.76425 -1.95738 11.0314 -5.44149
lowerback 9.17067 1.10035 -0.202321
upperback 1.62625 1.40123 -1.20708
thorax -3.42651 0.694948 -1.30379
lowerneck -20.6067 0.789483 -10.1321
upperneck 30.5057 6.87657 -5.14965
head 13.8534 1.07336 0.869004
rclavicle 2.0276e-014 -1.90833e-014
rhumerus 83.4576 -38.6659 -69.3609
rradius 81.8762
rwrist 11.7011
rhand -57.0488 1.40569
rfingers 7.12502
rthumb -29.3381 -26.2994
lclavicle 2.0276e-014 -1.90833e-014
lhumerus 77.0038 50.6652 55.1887
lradius 80.8503
lwrist 7.77349
lhand -34.8495 30.3143
lfingers 7.12502
lthumb -7.9995 60.1429
rfemur -8.4535 -9.02843 22.2886
rtibia 29.1748
rfoot -18.333 -10.7589
rtoes 1.09213
lfemur -17.4188 -10.0971 -2.76662
ltibia 50.0667
lfoot -5.78391 -14.2549
ltoes -24.0021
165
root -2.33128 17.6989 1.75916 -1.95576 11.5456 -5.55157
lowerback 9.36891 1.17975 0.0273313
upperback 1.85712 1.53117 -1.19386
thorax -3.28868 0.758863 -1.43584
lowerneck -20.3892 0.837241 -10.1696
upperneck 31.1362 7.04185 -5.20711
head 14.0859 1.09811 0.878816
rclavicle -3.97569e-016 1.74931e-014
rhumerus 82.9718 -37.8988 -68.8465
rradius 81.3285
rwrist 11.9053
rhand -56.8018 1.18459
rfingers 7.12502
rthumb -29.1022 -26.5616
lclavicle -3.97569e-016 1.74931e-014
lhumerus 76.0849 50.1479 54.578
lradius 80.519
lwrist 7.64946
lhand -34.7006 29.5412
lfingers 7.12502
lthumb -7.85576 59.3752
rfemur -8.50191 -9.43181 22.5621
rtibia 29.1756
rfoot -18.4472 -10.8824
rtoes 1.31792
lfemur -18.5604 -9.82451 -2.46038
ltibia 50.9442
lfoot -6.28806 -13.6116
ltoes -23.5312
166
root -2.3769 17.6978 1.75508 -1.97566 12.047 -5.62963
lowerback 9.58523 1.24664 0.184715
upperback 2.13604 1.63927 -1.15136
thorax -3.11335 0.813789 -1.49416
lowerneck -20.4349 0.957016 -10.1111
upperneck 31.8537 7.35928 -5.33316
head 14.4233 1.17512 0.875278
rclavicle -1.2921e-014 3.18055e-014
rhumerus 82.6669 -37.0105 -68.4744
rradius 80.7616
rwrist 12.3274
rhand -56.6622 1.15154
rfingers 7.12502
rthumb -28.9689 -26.6176
lclavicle -1.2921e-014 3.18055e-014
lhumerus 75.3468 49.7031 54.2647
lradius 80.2598
lwrist 7.14629
lhand -33.5052 29.0404
lfingers 7.12502
lthumb -6.70194 58.9143
rfemur -8.54609 -9.84057 22.799
rtibia 29.2155
rfoot -18.5554 -11.0309
rtoes 1.69353
lfemur -19.5952 -9.54627 -2.23038
ltibia 51.6337
lfoot -6.64488 -13.5042
ltoes -24.1532
167
root -2.42089 17.6993 1.75523 -1.92893 12.4232 -5.72425
lowerback 9.74126 1.38279 0.326792
upperback 2.27841 1.83737 -1.08981
thorax -3.04425 0.912589 -1.53589
lowerneck -20.19 1.13329 -9.9515
upperneck 32.449 7.68478 -5.50963
head 14.6524 1.27788 0.831886
rclavicle -1.0138e-014 -3.65764e-014
rhumerus 82.0248 -36.3684 -67.7664
rradius 80.1954
rwrist 12.6059
rhand -56.5387 1.20134
rfingers 7.12502
rthumb -28.8509 -26.588
lclavicle -1.0138e-014 -3.65764e-014
lhumerus 74.3727 49.0034 53.9415
lradius 80.0969
lwrist 6.58158
lhand -32.0807 28.7585
lfingers 7.12502
lthumb -5.32665 58.6715
rfemur -8.68051 -10.1242 23.0735
rtibia 29.2781
rfoot -18.624 -11.2208
rtoes 1.94923
lfemur -20.5797 -9.16404 -2.00877
ltibia 52.1296
lfoot -6.89034 -13.4861
ltoes -23.5979
168
root -2.46412 17.7002 1.75448 -1.86333 12.772 -5.74023
lowerback 9.95357 1.55041 0.391238
upperback 2.38256 2.06833 -1.04994
thorax -3.04615 1.02759 -1.56346
lowerneck -19.6404 1.21098 -10.076
upperneck 32.8637 7.83517 -5.51265
head 14.717 1.31882 0.869471
rclavicle -2.20651e-014 1.19271e-014
rhumerus 81.2291 -35.9125 -66.9066
rradius 79.6947
rwrist 12.7203
rhand -56.145 0.563332
rfingers 7.12502
rthumb -28.4748 -27.2895
lclavicle -2.20651e-014 1.19271e-014
lhumerus 73.2669 48.1132 53.564
lradius 79.9797
lwrist 6.25205
lhand -31.0731 28.4073
lfingers 7.12502
lthumb -4.35377 58.3425
rfemur -8.84172 -10.2746 23.2763
rtibia 29.3634
rfoot -18.786 -11.4636
rtoes 1.90908
lfemur -21.5229 -8.73203 -1.8853
ltibia 52.4432
lfoot -7.21828 -13.1494
ltoes -20.8057
169
root -2.50514 17.7003 1.75513 -1.77907 13.2245 -5.71068
lowerback 10.1038 1.66787 0.466861
upperback 2.58126 2.23356 -1.05531
thorax -2.91488 1.11163 -1.63252
lowerneck -19.2476 1.2045 -10.2854
upperneck 33.5308 7.90788 -5.39029
head 14.9262 1.31068 0.960712
rclavicle -1.94809e-014 -1.35174e-014
rhumerus 80.519 -35.3121 -66.3327
rradius 79.3958
rwrist 12.8413
rhand -55.6661 0.465108
rfingers 7.12502
rthumb -28.0171 -27.4634
lclavicle -1.94809e-014 -1.35174e-014
lhumerus 72.0912 47.3598 52.9618
lradius 79.9778
lwrist 6.28843
lhand -30.3843 28.1052
lfingers 7.12502
lthumb -3.68857 58.053
rfemur -9.03007 -10.5686 23.4208
rtibia 29.4921
rfoot -18.9046 -11.7372
rtoes 0.808127
lfemur -22.4564 -8.41289 -1.8384
ltibia 52.5925
lfoot -7.50386 -12.4866
ltoes -19.3679
170
root -2.54532 17.7001 1.75721 -1.6585 13.6245 -5.68946
lowerback 10.1034 1.7657 0.502903
upperback 2.88832 2.3711 -1.02366
thorax -2.59175 1.1846 -1.62938
lowerneck -19.1206 1.21746 -10.4139
upperneck 34.3846 8.06725 -5.30741
head 15.2938 1.32048 1.04278
rclavicle -5.80451e-014 2.70347e-014
rhumerus 79.9453 -34.4418 -66.0518
rradius 79.2693
rwrist 13.1121
rhand -55.4872 0.617748
rfingers 7.12502
rthumb -27.8461 -27.3386
lclavicle -5.80451e-014 2.70347e-014
lhumerus 71.0223 46.7654 52.4509
lradius 80.0094
lwrist 6.28824
lhand -29.8549 27.999
lfingers 7.12502
lthumb -3.17735 57.9551
rfemur -9.2683 -10.8051 23.5686
rtibia 29.6631
rfoot -19.067 -11.916
rtoes 0.546303
lfemur -23.3346 -8.06158 -1.82099
ltibia 52.6006
lfoot -7.8586 -11.5769
ltoes -23.5403
171
root -2.58365 17.6984 1.76024 -1.47298 13.9723 -5.60241
lowerback 10.099 1.84438 0.418216
upperback 3.10304 2.47035 -0.987125
thorax -2.36885 1.23722 -1.55044
lowerneck -18.8147 1.23418 -10.5648
upperneck 35.0198 8.19524 -5.26921
head 15.5249 1.32799 1.10153
rclavicle -2.38542e-015 1.82882e-014
rhumerus 79.2167 -33.4152 -65.6955
rradius 79.2072
rwrist 13.3761
rhand -55.5397 -0.510365
rfingers 7.12502
rthumb -27.8962 -28.4586
lclavicle -2.38542e-015 1.82882e-014
lhumerus 69.6768 46.1161 51.7927
lradius 80.1144
lwrist 6.25519
lhand -29.3647 27.9688
lfingers 7.12502
lthumb -2.70391 57.9314
rfemur -9.55836 -10.9388 23.6536
rtibia 29.8778
rfoot -19.2937 -12.0642
rtoes 0.770535
lfemur -24.1897 -7.66187 -1.9189
ltibia 52.4616
lfoot -8.22822 -10.8694
ltoes -24.1348
